<svg xmlns="http://www.w3.org/2000/svg" viewBox="0 0 151.55 52.61"><defs><style>.cls-1{fill:#f2c244;}</style></defs><title>logo-fac413</title><g id="Слой_2" data-name="Слой 2"><g id="Слой_1-2" data-name="Слой 1"><polygon class="cls-1" points="0 52.6 11.42 52.6 11.42 47.35 5.59 47.35 5.59 5.25 11.42 5.25 11.42 0 0 0 0 52.6"/><rect class="cls-1" x="19.95" y="3.71" width="5.71" height="14.03"/><path class="cls-1" d="M38.34,23.21a9.15,9.15,0,0,1,3.83-3,11.25,11.25,0,0,1,13.58,3.21,10.57,10.57,0,0,1,1.74,3.53H36.43a13.07,13.07,0,0,1,1.91-3.71m16.74,15a11.16,11.16,0,0,1-8,3.12,11,11,0,0,1-4.18-.78,13.48,13.48,0,0,1-3.64-2.3,9.51,9.51,0,0,1-2.38-3.3,10.41,10.41,0,0,1-.79-2.71H63.44l0-.8a32.78,32.78,0,0,0-.5-5.16,15.8,15.8,0,0,0-3.11-6.44A17.65,17.65,0,0,0,54,15.26a16.76,16.76,0,0,0-7.11-1.58,16.05,16.05,0,0,0-8.26,2.19,16.47,16.47,0,0,0-5.95,6,15.89,15.89,0,0,0-2.21,8.38,15.93,15.93,0,0,0,2.21,8.29A16.22,16.22,0,0,0,47,46.8a17.53,17.53,0,0,0,11.1-4.14,15.33,15.33,0,0,0,2.68-2.84,17.13,17.13,0,0,0,1.42-2.48H55.82a9.72,9.72,0,0,1-.75.86"/><rect class="cls-1" x="70.25" y="14.31" width="5.59" height="31.78"/><rect class="cls-1" x="70.25" y="3.71" width="5.59" height="5.55"/><path class="cls-1" d="M109.44,35.76a11.55,11.55,0,0,1-4.11,4,10.92,10.92,0,0,1-5.64,1.51,11.74,11.74,0,0,1-5.75-1.46,11,11,0,0,1-4.08-4,11.42,11.42,0,0,1-1.46-5.67,11,11,0,0,1,1.46-5.67,10.44,10.44,0,0,1,4.09-4,11.56,11.56,0,0,1,5.79-1.4,10.78,10.78,0,0,1,9.63,5.57,10.22,10.22,0,0,1,1.53,5.44,11.2,11.2,0,0,1-1.45,5.65m2-17.35A15.74,15.74,0,0,0,106,15a17.55,17.55,0,0,0-6.56-1.27,14.49,14.49,0,0,0-9.95,3.61,8,8,0,0,0-.82.88V3.71H83.08V46.09h5.37V42.3a12.25,12.25,0,0,0,1,1A18,18,0,0,0,94,45.83a20.25,20.25,0,0,0,6,1,16.08,16.08,0,0,0,8.31-2.27,16.39,16.39,0,0,0,6-6.11,16.8,16.8,0,0,0,2.2-8.42,15.14,15.14,0,0,0-1.36-6.37,18,18,0,0,0-3.64-5.23"/><rect class="cls-1" x="122.56" y="3.71" width="5.59" height="42.38"/><polygon class="cls-1" points="140.19 0 140.19 5.25 145.96 5.25 145.96 47.35 140.19 47.35 140.19 52.6 151.55 52.6 151.55 0 140.19 0"/></g></g></svg>